<svg width="125" height="37" viewBox="0 0 125 37" fill="none" xmlns="http://www.w3.org/2000/svg">
<path d="M4.4927 36C3.51963 36 2.68078 35.6477 1.97615 34.943C1.30507 34.2384 0.969528 33.3996 0.969528 32.4265V5.2981C0.969528 3.62041 1.52317 2.37891 2.63045 1.57361C3.73773 0.734762 5.43221 0.315336 7.71388 0.315336V30.1616H21.3032C22.8803 30.1616 24.0714 30.6649 24.8767 31.6715C25.682 32.6446 26.0847 34.0874 26.0847 36H4.4927ZM41.0585 36.453C38.3071 36.453 35.7906 35.9161 33.5089 34.8424C31.2272 33.7351 29.4153 32.242 28.0732 30.3629C26.7645 28.4839 26.1102 26.4371 26.1102 24.2226V12.4954C26.1102 10.2809 26.7645 8.25085 28.0732 6.40539C29.4153 4.52636 31.2272 3.04999 33.5089 1.97626C35.7906 0.868977 38.3071 0.315336 41.0585 0.315336C43.81 0.315336 46.3265 0.868977 48.6082 1.97626C50.9234 3.04999 52.7353 4.52636 54.0439 6.40539C55.3861 8.25085 56.0572 10.2809 56.0572 12.4954V24.2226C56.0572 26.4371 55.3861 28.4839 54.0439 30.3629C52.7353 32.242 50.9234 33.7351 48.6082 34.8424C46.3265 35.9161 43.81 36.453 41.0585 36.453ZM41.0585 30.5643C43.5751 30.5643 45.5883 29.9771 47.0983 28.8027C48.6082 27.5947 49.3632 26.0345 49.3632 24.1219V12.6464C49.3632 10.7003 48.6082 9.14004 47.0983 7.96565C45.5883 6.7577 43.5751 6.15373 41.0585 6.15373C38.5755 6.15373 36.5791 6.7577 35.0692 7.96565C33.5592 9.14004 32.8043 10.7003 32.8043 12.6464V24.1219C32.8043 26.0345 33.5592 27.5947 35.0692 28.8027C36.5791 29.9771 38.5755 30.5643 41.0585 30.5643ZM75.4295 36.453C72.4432 36.453 69.7756 35.8826 67.4269 34.7417C65.1116 33.6009 63.2997 32.0071 61.9911 29.9603C60.6825 27.9135 60.0282 25.5815 60.0282 22.9643V13.7034C60.0282 11.0862 60.6657 8.77094 61.9408 6.7577C63.2494 4.71091 65.0445 3.13387 67.3262 2.02659C69.6079 0.885755 72.2251 0.315336 75.1778 0.315336C78.1306 0.315336 80.7478 0.768315 83.0295 1.67427C85.3447 2.54668 87.1398 3.7714 88.4149 5.34844C89.6899 6.92547 90.3275 8.73739 90.3275 10.7842C90.3275 12.0257 89.908 12.9987 89.0692 13.7034C88.2639 14.408 87.1734 14.7603 85.7977 14.7603C85.1266 14.7603 84.3884 14.6597 83.5831 14.4583C83.6502 13.653 83.6838 12.8645 83.6838 12.0928C83.6838 10.3144 82.8952 8.8716 81.3182 7.76432C79.7412 6.65704 77.6944 6.1034 75.1778 6.1034C72.6948 6.1034 70.6648 6.80803 69.0878 8.2173C67.5443 9.62657 66.7726 11.4553 66.7726 13.7034V22.9643C66.7726 25.2124 67.5779 27.0579 69.1884 28.5007C70.799 29.9435 72.8794 30.6649 75.4295 30.6649C77.9125 30.6649 79.9257 30.0945 81.4692 28.9537C83.0462 27.7793 83.8348 26.2693 83.8348 24.4239V22.8636H79.5063C78.2312 22.8636 77.1911 22.3771 76.3858 21.404C75.5805 20.3974 75.1778 19.1056 75.1778 17.5285H87.4083C88.3478 17.5285 89.1027 17.8137 89.6732 18.3842C90.2436 18.9546 90.5288 19.7095 90.5288 20.6491V24.5749C90.5288 26.8901 89.8913 28.9537 88.6162 30.7656C87.3412 32.5439 85.546 33.9364 83.2308 34.943C80.9491 35.9497 78.3487 36.453 75.4295 36.453ZM109.379 36.453C106.627 36.453 104.111 35.9161 101.829 34.8424C99.5476 33.7351 97.7357 32.242 96.3935 30.3629C95.0849 28.4839 94.4306 26.4371 94.4306 24.2226V12.4954C94.4306 10.2809 95.0849 8.25085 96.3935 6.40539C97.7357 4.52636 99.5476 3.04999 101.829 1.97626C104.111 0.868977 106.627 0.315336 109.379 0.315336C112.13 0.315336 114.647 0.868977 116.929 1.97626C119.244 3.04999 121.056 4.52636 122.364 6.40539C123.706 8.25085 124.378 10.2809 124.378 12.4954V24.2226C124.378 26.4371 123.706 28.4839 122.364 30.3629C121.056 32.242 119.244 33.7351 116.929 34.8424C114.647 35.9161 112.13 36.453 109.379 36.453ZM109.379 30.5643C111.895 30.5643 113.909 29.9771 115.419 28.8027C116.929 27.5947 117.684 26.0345 117.684 24.1219V12.6464C117.684 10.7003 116.929 9.14004 115.419 7.96565C113.909 6.7577 111.895 6.15373 109.379 6.15373C106.896 6.15373 104.899 6.7577 103.39 7.96565C101.88 9.14004 101.125 10.7003 101.125 12.6464V24.1219C101.125 26.0345 101.88 27.5947 103.39 28.8027C104.899 29.9771 106.896 30.5643 109.379 30.5643Z" fill="black"/>
</svg>
